<mxfile host="app.diagrams.net" modified="2024-07-12T14:21:35.908Z" agent="Mozilla/5.0 (Windows NT 10.0; Win64; x64) AppleWebKit/537.36 (KHTML, like Gecko) Chrome/127.0.0.0 Safari/537.36 Edg/127.0.0.0" version="24.6.5" etag="p75_m3xaMqBuak3fzAY5" type="github">
  <diagram name="Page-1" id="BdkQXMeS5g3VrS8Hv64n">
    <mxGraphModel>
      <root>
        <mxCell id="0" />
        <mxCell id="1" parent="0" />
      </root>
    </mxGraphModel>
  </diagram>
</mxfile>
